<svg width="16" height="16" viewBox="0 0 16 16" fill="none" xmlns="http://www.w3.org/2000/svg">
<path d="M10.6444 8.46498C10.9012 8.20113 10.8955 7.77906 10.6317 7.52226C10.3678 7.26546 9.94575 7.27117 9.68895 7.53502L7.5158 9.76779L6.58367 9.02057C6.29639 8.79028 5.87682 8.83648 5.64652 9.12376C5.41623 9.41104 5.46243 9.83061 5.74971 10.0609L7.39047 11.3762C7.52444 11.4836 7.71807 11.4716 7.83783 11.3486L10.6444 8.46498Z" fill="white"/>
<path fill-rule="evenodd" clip-rule="evenodd" d="M5.33333 1.33333C5.70152 1.33333 6 1.63181 6 2H10C10 1.63181 10.2985 1.33333 10.6667 1.33333C11.0349 1.33333 11.3333 1.63181 11.3333 2H12C13.1046 2 14 2.89543 14 4V12.6667C14 13.7712 13.1046 14.6667 12 14.6667H4C2.89543 14.6667 2 13.7712 2 12.6667V4C2 2.89543 2.89543 2 4 2H4.66667C4.66667 1.63181 4.96514 1.33333 5.33333 1.33333ZM12.6667 4V4.66667H3.33333V4C3.33333 3.63181 3.63181 3.33333 4 3.33333H4.66667C4.66667 3.70152 4.96514 4 5.33333 4C5.70152 4 6 3.70152 6 3.33333H10C10 3.70152 10.2985 4 10.6667 4C11.0349 4 11.3333 3.70152 11.3333 3.33333H12C12.3682 3.33333 12.6667 3.63181 12.6667 4ZM3.33333 12.6667V6H12.6667V12.6667C12.6667 13.0349 12.3682 13.3333 12 13.3333H4C3.63181 13.3333 3.33333 13.0349 3.33333 12.6667Z" fill="white"/>
</svg>
