<svg width="16" height="16" viewBox="0 0 16 16" fill="none" xmlns="http://www.w3.org/2000/svg">
<path fill-rule="evenodd" clip-rule="evenodd" d="M5.33329 2.66667C5.33329 1.93029 5.93025 1.33333 6.66663 1.33333H9.33329C10.0697 1.33333 10.6666 1.93029 10.6666 2.66667H11.3333C12.4379 2.66667 13.3333 3.5621 13.3333 4.66667V12.6667C13.3333 13.7712 12.4379 14.6667 11.3333 14.6667H4.66663C3.56206 14.6667 2.66663 13.7712 2.66663 12.6667V4.66667C2.66663 3.5621 3.56206 2.66667 4.66663 2.66667L5.33329 2.66667ZM6.66663 2.66667H9.33329V4H6.66663V2.66667ZM10.6666 4C10.6666 4.73638 10.0697 5.33333 9.33329 5.33333H6.66663C5.93025 5.33333 5.33329 4.73638 5.33329 4H4.66663C4.29844 4 3.99996 4.29848 3.99996 4.66667V12.6667C3.99996 13.0349 4.29844 13.3333 4.66663 13.3333H11.3333C11.7015 13.3333 12 13.0349 12 12.6667V4.66667C12 4.29848 11.7015 4 11.3333 4H10.6666Z" fill="white"/>
</svg>
