<svg width="12" height="12" viewBox="0 0 12 12" fill="none" xmlns="http://www.w3.org/2000/svg">
<path d="M11.1725 9.99393C11.498 10.3194 11.498 10.847 11.1725 11.1724C10.8471 11.4979 10.3194 11.4979 9.994 11.1724L5.99995 7.17844L2.00601 11.1724C1.68058 11.4979 1.15294 11.4979 0.8275 11.1725C0.502061 10.847 0.502056 10.3194 0.82749 9.99394L4.82143 5.99994L0.827331 2.00591C0.501891 1.68047 0.501893 1.15284 0.827332 0.827405C1.15277 0.50197 1.68041 0.501969 2.00585 0.827404L5.99993 4.82142L9.99386 0.827418C10.3193 0.501978 10.8469 0.501975 11.1724 0.827409C11.4978 1.15284 11.4978 1.68048 11.1724 2.00592L7.17845 5.99992L11.1725 9.99393Z" fill="#A3A9B5"/>
</svg>
