<svg width="24" height="24" viewBox="0 0 24 24" fill="none" xmlns="http://www.w3.org/2000/svg">
<path fill-rule="evenodd" clip-rule="evenodd" d="M19.9732 18.6594L17.0233 15.7096L15.0772 18.2868L14.3701 18.0077L14.3656 18.0059L14.3568 18.0024L14.3266 17.9902C14.301 17.9798 14.2647 17.9649 14.2187 17.9455C14.1266 17.9069 13.9955 17.8505 13.8334 17.7775C13.5097 17.6316 13.0601 17.4181 12.5508 17.145C11.5465 16.6064 10.2501 15.8046 9.2412 14.7957C8.23228 13.7868 7.43043 12.4904 6.89177 11.4859C6.61864 10.9766 6.40508 10.527 6.25921 10.2033C6.18616 10.0412 6.12978 9.91006 6.09111 9.818C6.07177 9.77196 6.05684 9.73564 6.04643 9.71008L6.03424 9.6799L6.03072 9.67109L6.02922 9.6673L5.74978 8.95947L8.32705 7.01328L5.37727 4.0635C4.79237 5.01929 4.03987 6.64469 4.03506 8.66566C4.03007 10.7615 4.82803 13.4138 7.72559 16.3113C10.6232 19.2089 13.2754 20.0068 15.3712 20.0017C17.3921 19.9969 19.0174 19.2443 19.9732 18.6594ZM8.19264 9.62095L9.53229 8.60934C10.5015 7.87749 10.6 6.45782 9.74127 5.59907L6.70516 2.56297C5.91561 1.77342 4.4906 1.73455 3.78703 2.83463C3.07493 3.94806 2.04137 6.0137 2.03506 8.6609C2.02867 11.3442 3.07862 14.4928 6.31137 17.7255C9.54415 20.9583 12.6927 22.0082 15.376 22.0017C18.0231 21.9954 20.0887 20.9617 21.2021 20.2496C22.3021 19.546 22.2632 18.121 21.4737 17.3315L18.4376 14.2954C17.5788 13.4366 16.1591 13.5352 15.4273 14.5043L14.4156 15.844C14.157 15.7228 13.8416 15.5677 13.496 15.3824C12.5597 14.8803 11.4615 14.1876 10.6554 13.3815C9.84928 12.5753 9.15651 11.4771 8.65431 10.5407C8.46896 10.1951 8.31387 9.87968 8.19264 9.62095Z" fill="#667085"/>
</svg>
